<svg width="88" height="85" viewBox="0 0 88 85" fill="none" xmlns="http://www.w3.org/2000/svg">
<path fill-rule="evenodd" clip-rule="evenodd" d="M40.8067 44.1847C41.0218 45.4417 40.2811 47.8024 37.9361 52.2603C31.0864 65.2822 25.0225 67.931 20.6577 65.9338C17.2527 64.3758 15.8875 60.4507 18.7038 52.6177C11.8555 49.1007 9.95917 45.2162 10.7817 41.7645C11.8944 37.0953 17.5611 34.9861 31.927 39.2583C39.061 41.3799 40.8997 42.7605 40.8067 44.1847Z" fill="#F4F4F4"/>
<path fill-rule="evenodd" clip-rule="evenodd" d="M47.0897 40.263C46.9182 38.9994 47.7401 36.6658 50.2378 32.2916C57.5338 19.5144 63.6857 17.0769 67.9789 19.2238C71.328 20.8987 72.5565 24.8686 69.4711 32.5996C76.1936 36.3513 77.9544 40.2991 77.013 43.7202C75.7395 48.3482 70.0033 50.2601 55.7937 45.4936C48.7373 43.1266 46.9475 41.6832 47.0897 40.263Z" fill="#F4F4F4"/>
<path fill-rule="evenodd" clip-rule="evenodd" d="M45.7124 44.6996C46.9674 44.4733 49.3346 45.1927 53.8133 47.4975C66.8963 54.23 69.5994 60.2698 67.6416 64.6524C66.1142 68.0713 62.2016 69.4716 54.3435 66.7259C50.8882 73.6055 47.0209 75.5366 43.562 74.7451C38.8829 73.6745 36.723 68.0269 40.8659 53.6232C42.9233 46.4704 44.2874 44.6194 45.7124 44.6996Z" fill="#F4F4F4"/>
<path fill-rule="evenodd" clip-rule="evenodd" d="M43.5668 40.1215C42.3283 40.4256 39.9209 39.8549 35.3073 37.8334C21.8306 31.9285 18.7567 26.0686 20.4379 21.5727C21.7494 18.0653 25.5673 16.4241 33.5811 18.6753C36.6014 11.594 40.3409 9.4258 43.8424 10.0004C48.5791 10.7777 51.0864 16.2798 47.8482 30.9135C46.2402 38.1805 44.994 40.1128 43.5668 40.1215Z" fill="#F4F4F4"/>
<circle cx="44.5097" cy="44.7437" r="7.64938" fill="#F4D782"/>
</svg>
