<svg width="166" height="161" viewBox="0 0 166 161" fill="none" xmlns="http://www.w3.org/2000/svg">
<path fill-rule="evenodd" clip-rule="evenodd" d="M77.1282 83.3611C77.5387 85.76 76.1252 90.2651 71.65 98.7727C58.5778 123.624 47.0052 128.679 38.6753 124.868C32.177 121.894 29.5717 114.404 34.9463 99.4548C21.8769 92.7429 18.2578 85.3296 19.8275 78.7423C21.951 69.8313 32.7656 65.8062 60.182 73.9594C73.7968 78.0082 77.3057 80.6431 77.1282 83.3611Z" fill="#117B1C"/>
<path fill-rule="evenodd" clip-rule="evenodd" d="M89.1188 75.8767C88.7915 73.4651 90.3601 69.0116 95.1268 60.6638C109.051 36.2792 120.791 31.6276 128.984 35.7248C135.376 38.9211 137.721 46.4975 131.832 61.2516C144.662 68.4115 148.022 75.9455 146.225 82.4745C143.795 91.3068 132.848 94.9555 105.73 85.8589C92.2631 81.3417 88.8474 78.587 89.1188 75.8767Z" fill="#117B1C"/>
<path fill-rule="evenodd" clip-rule="evenodd" d="M86.4906 84.3438C88.8857 83.9118 93.4033 85.2848 101.951 89.6833C126.919 102.532 132.077 114.058 128.341 122.422C125.426 128.947 117.959 131.62 102.963 126.379C96.3683 139.509 88.9879 143.194 82.3868 141.684C73.457 139.64 69.3349 128.862 77.2415 101.374C81.1678 87.7232 83.771 84.1907 86.4906 84.3438Z" fill="#117B1C"/>
<path fill-rule="evenodd" clip-rule="evenodd" d="M82.3958 75.6067C80.0322 76.187 75.4378 75.0979 66.6331 71.24C40.9136 59.9709 35.0473 48.7877 38.2558 40.2075C40.7588 33.5139 48.045 30.3818 63.3387 34.6781C69.1028 21.1638 76.2395 17.026 82.9218 18.1226C91.9614 19.606 96.7466 30.1064 90.5667 58.0339C87.4978 71.9025 85.1195 75.5901 82.3958 75.6067Z" fill="#117B1C"/>
<circle cx="84.1953" cy="84.4278" r="14.5983" fill="#F4D782"/>
</svg>
