<svg width="161" height="156" viewBox="0 0 161 156" fill="none" xmlns="http://www.w3.org/2000/svg">
<path fill-rule="evenodd" clip-rule="evenodd" d="M74.0559 80.1872C74.4004 82.5964 72.8637 87.061 68.1568 95.4426C54.4073 119.926 42.7004 124.661 34.4782 120.623C28.064 117.472 25.6653 109.913 31.4481 95.1171C18.5678 88.0489 15.1536 80.5392 16.9035 73.9974C19.2708 65.1481 30.1917 61.4213 57.3741 70.3239C70.8726 74.7448 74.3079 77.475 74.0559 80.1872Z" fill="#F7F1E8"/>
<path fill-rule="evenodd" clip-rule="evenodd" d="M86.2476 73.0348C85.9866 70.615 87.6768 66.2062 92.6708 57.9925C107.259 33.9992 119.122 29.6715 127.2 33.9921C133.502 37.3626 135.637 45.0005 129.346 59.5874C141.974 67.0968 145.127 74.7202 143.152 81.1974C140.48 89.9596 129.436 93.3065 102.578 83.4691C89.2407 78.5839 85.9019 75.7366 86.2476 73.0348Z" fill="#F7F1E8"/>
<path fill-rule="evenodd" clip-rule="evenodd" d="M83.3878 81.4265C85.7938 81.0603 90.2721 82.5569 98.6956 87.1883C123.302 100.717 128.142 112.381 124.177 120.639C121.085 127.082 113.547 129.548 98.6998 123.898C91.7477 136.842 84.2689 140.323 77.7117 138.632C68.8415 136.344 65.0167 125.457 73.6748 98.1962C77.9743 84.6585 80.6735 81.1988 83.3878 81.4265Z" fill="#F7F1E8"/>
<path fill-rule="evenodd" clip-rule="evenodd" d="M79.5344 72.5803C77.1558 73.0955 72.5931 71.8807 63.8975 67.7827C38.497 55.8119 32.9399 44.4719 36.3826 35.983C39.0684 29.3606 46.4378 26.4297 61.6079 31.144C67.7407 17.7931 74.9882 13.8527 81.638 15.1323C90.6335 16.8632 95.1286 27.491 88.1845 55.2384C84.7362 69.0175 82.2576 72.6385 79.5344 72.5803Z" fill="#F7F1E8"/>
<circle cx="81.1953" cy="81.4279" r="14.5983" fill="#F4D782"/>
</svg>
